<svg width="64" height="18" viewBox="0 0 64 18" fill="none" xmlns="http://www.w3.org/2000/svg">
<path fill-rule="evenodd" clip-rule="evenodd" d="M12 18V1.04907e-06L0 0V1.92L9.84 1.92V18H12ZM36 10L36 8.08002L24 8.08002V10L33.84 10L36 10ZM48 6.05654H50.2677C50.5953 4.40917 51.9055 1.9381 55.6598 1.9381C59.9433 1.9381 61.7323 5.49934 61.7323 8.9879C61.7323 12.5007 59.9433 16.0619 55.6598 16.0619C51.8803 16.0619 50.4189 13.5909 50.2677 11.4105H48C48.4031 15.2382 51.2252 18 55.6598 18C60.5984 18 64 14.2207 64 8.9879C64 3.77929 60.5984 1.61352e-05 55.6598 1.61352e-05C51.2504 1.61352e-05 48.4283 2.76179 48 6.05654Z" fill="white"/>
</svg>
